<svg xmlns="http://www.w3.org/2000/svg" viewBox="0 0 480 320">
  <rect width="480" height="320" fill="#1a1005"/>
  <!-- Rock/basking surface -->
  <ellipse cx="240" cy="285" rx="180" ry="25" fill="#1e1508" opacity="0.7"/>
  <!-- Body -->
  <ellipse cx="220" cy="195" rx="90" ry="50" fill="#7a5520"/>
  <!-- Belly lighter -->
  <ellipse cx="220" cy="210" rx="68" ry="34" fill="#c89040"/>
  <!-- Tail -->
  <path d="M135 200 Q95 205 70 220 Q50 235 55 248 Q62 255 72 245 Q92 228 120 215 Q148 205 135 200Z" fill="#6a4818"/>
  <!-- Neck / beard area -->
  <path d="M285 185 Q310 175 330 172 Q338 170 330 182 Q315 192 295 198Z" fill="#7a5520"/>
  <!-- Beard spikes -->
  <path d="M295 195 Q285 218 275 230 Q268 238 262 232 Q270 220 278 208Z" fill="#5a3c15"/>
  <path d="M278 200 Q265 222 255 234 Q248 241 242 236 Q250 222 260 210Z" fill="#5a3c15"/>
  <path d="M260 205 Q245 226 235 238 Q228 245 222 240 Q230 226 240 214Z" fill="#5a3c15"/>
  <!-- Head -->
  <ellipse cx="340" cy="178" rx="58" ry="40" fill="#7a5520"/>
  <!-- Head spikes -->
  <path d="M340 140 L335 128 L330 140Z" fill="#5a3c15"/>
  <path d="M358 142 L354 130 L348 143Z" fill="#5a3c15"/>
  <path d="M322 142 L318 131 L312 144Z" fill="#5a3c15"/>
  <!-- Eye -->
  <ellipse cx="355" cy="168" rx="13" ry="12" fill="#c8a84b"/>
  <ellipse cx="355" cy="168" rx="5" ry="9" fill="#0a0a0a"/>
  <circle cx="352" cy="165" r="2.5" fill="rgba(255,255,255,0.4)"/>
  <!-- Snout -->
  <ellipse cx="390" cy="180" rx="20" ry="15" fill="#6a4818"/>
  <!-- Nostril -->
  <circle cx="386" cy="174" r="2.5" fill="#3a2008"/>
  <!-- Scale pattern -->
  <circle cx="200" cy="190" r="4" fill="#6a4818" opacity="0.5"/>
  <circle cx="218" cy="185" r="4" fill="#6a4818" opacity="0.5"/>
  <circle cx="235" cy="192" r="4" fill="#6a4818" opacity="0.5"/>
  <circle cx="252" cy="187" r="3" fill="#6a4818" opacity="0.5"/>
  <!-- Front leg -->
  <path d="M290 230 Q300 255 290 275 Q285 282 280 275 Q283 258 278 240Z" fill="#6a4818"/>
  <!-- Back leg -->
  <path d="M175 232 Q185 258 175 278 Q170 285 165 278 Q168 260 163 242Z" fill="#6a4818"/>
  <!-- Toes -->
  <path d="M285 274 L278 285 M280 276 L272 287 M275 278 L268 288" stroke="#5a3c15" stroke-width="2.5" fill="none" stroke-linecap="round"/>
  <!-- Label -->
  <text x="240" y="308" font-family="monospace" font-size="11" fill="#c8a84b" text-anchor="middle" letter-spacing="3" opacity="0.7">BEARDED DRAGON</text>
</svg>