<svg xmlns="http://www.w3.org/2000/svg" viewBox="0 0 480 320">
  <rect width="480" height="320" fill="#0f0e08"/>
  <ellipse cx="235" cy="275" rx="148" ry="20" fill="#080705" opacity="0.6"/>
  <ellipse cx="218" cy="198" rx="100" ry="48" fill="#a07828"/>
  <ellipse cx="218" cy="210" rx="80" ry="34" fill="#d0a840"/>
  <!-- Bands -->
  <path d="M162 182 Q165 210 160 225" stroke="#5a3808" stroke-width="18" fill="none" opacity="0.5"/>
  <path d="M192 178 Q196 206 191 221" stroke="#5a3808" stroke-width="16" fill="none" opacity="0.5"/>
  <path d="M222 176 Q226 204 221 219" stroke="#5a3808" stroke-width="16" fill="none" opacity="0.5"/>
  <path d="M252 178 Q256 205 252 220" stroke="#5a3808" stroke-width="15" fill="none" opacity="0.5"/>
  <path d="M280 182 Q283 208 280 222" stroke="#5a3808" stroke-width="14" fill="none" opacity="0.45"/>
  <!-- Tail short -->
  <path d="M122 202 Q90 210 72 225 Q55 238 58 250 Q66 256 76 245 Q96 228 122 215Z" fill="#8a6820"/>
  <!-- Head - large broad -->
  <ellipse cx="330" cy="196" rx="56" ry="40" fill="#a07828"/>
  <!-- Blue tongue - signature feature -->
  <path d="M374 200 Q392 196 400 198 Q406 200 400 206 Q392 210 374 206Z" fill="#4060d0"/>
  <ellipse cx="390" cy="202" rx="12" ry="5" fill="#5070e0" opacity="0.7"/>
  <!-- Eye -->
  <ellipse cx="342" cy="184" rx="12" ry="11" fill="#c8a020"/>
  <ellipse cx="342" cy="184" rx="4" ry="9" fill="#080808"/>
  <circle cx="339" cy="181" r="2" fill="rgba(255,255,255,0.4)"/>
  <!-- Snout -->
  <ellipse cx="376" cy="200" rx="22" ry="16" fill="#8a6818"/>
  <!-- Small legs -->
  <path d="M292 232 Q298 252 290 266 Q286 272 281 266 Q284 252 280 238Z" fill="#8a6820"/>
  <path d="M265 236 Q270 256 262 270 Q258 276 253 270 Q256 256 252 242Z" fill="#8a6820"/>
  <path d="M188 234 Q193 254 185 268 Q181 274 176 268 Q179 254 175 240Z" fill="#8a6820"/>
  <path d="M162 232 Q167 252 159 266 Q155 272 150 266 Q153 252 149 238Z" fill="#8a6820"/>
  <text x="240" y="308" font-family="monospace" font-size="11" fill="#c0a038" text-anchor="middle" letter-spacing="3" opacity="0.7">BLUE-TONGUE SKINK</text>
</svg>