<svg xmlns="http://www.w3.org/2000/svg" viewBox="0 0 480 320">
  <rect width="480" height="320" fill="#050f05"/>
  <!-- Branch -->
  <path d="M30 175 Q120 165 200 170 Q280 175 350 162 Q400 155 450 148" stroke="#2a1c08" stroke-width="18" fill="none" stroke-linecap="round"/>
  <path d="M30 175 Q120 165 200 170 Q280 175 350 162 Q400 155 450 148" stroke="#3a2810" stroke-width="8" fill="none" stroke-linecap="round"/>
  <!-- Prehensile tail coiled around branch -->
  <path d="M95 172 Q75 178 68 188 Q64 198 72 203 Q82 206 90 196 Q98 184 95 172Z" fill="#2a5a15"/>
  <!-- Body -->
  <ellipse cx="240" cy="150" rx="88" ry="45" fill="#2a5a15" transform="rotate(-8 240 150)"/>
  <!-- Lateral compression - ridge -->
  <path d="M158 145 Q190 128 240 125 Q290 122 322 138" stroke="#1a4a0a" stroke-width="5" fill="none"/>
  <!-- Casque / helmet -->
  <path d="M310 90 Q325 75 318 120 L300 130 Q295 110 305 95Z" fill="#2a5a15"/>
  <path d="M316 88 Q328 72 320 118" stroke="#1a4010" stroke-width="3" fill="none"/>
  <!-- Head -->
  <ellipse cx="305" cy="133" rx="46" ry="32" fill="#2a5a15" transform="rotate(-5 305 133)"/>
  <!-- Turret eye -->
  <ellipse cx="318" cy="122" rx="16" ry="15" fill="#1a4010"/>
  <ellipse cx="318" cy="122" rx="12" ry="11" fill="#c8d040"/>
  <ellipse cx="318" cy="122" rx="4" ry="10" fill="#0a0a0a"/>
  <circle cx="315" cy="118" r="2.5" fill="rgba(255,255,255,0.5)"/>
  <!-- Tongue hint -->
  <path d="M348 140 Q362 138 372 140 Q378 142 372 145 Q362 148 350 144Z" fill="#e04040" opacity="0.7"/>
  <!-- Toe grip on branch -->
  <path d="M195 170 Q188 180 180 178 M198 172 Q192 183 184 181 M202 171 Q196 180 188 178" stroke="#1a4010" stroke-width="3" fill="none" stroke-linecap="round"/>
  <!-- Color bands -->
  <path d="M170 148 Q175 162 170 175" stroke="#4a8a25" stroke-width="8" fill="none" opacity="0.4"/>
  <path d="M210 143 Q215 157 210 170" stroke="#4a8a25" stroke-width="8" fill="none" opacity="0.4"/>
  <path d="M255 140 Q260 155 255 168" stroke="#4a8a25" stroke-width="8" fill="none" opacity="0.4"/>
  <!-- Label -->
  <text x="240" y="308" font-family="monospace" font-size="11" fill="#4a8a25" text-anchor="middle" letter-spacing="3" opacity="0.7">VEILED CHAMELEON</text>
</svg>