<svg xmlns="http://www.w3.org/2000/svg" viewBox="0 0 480 320">
  <rect width="480" height="320" fill="#050f05"/>
  <!-- Branch -->
  <path d="M20 240 Q150 230 280 238 Q380 244 460 235" stroke="#1e1505" stroke-width="20" fill="none" stroke-linecap="round"/>
  <!-- Dewlap -->
  <path d="M300 200 Q295 228 280 248 Q270 262 260 255 Q265 238 270 220 Q278 208 300 200Z" fill="#1a7020" opacity="0.8"/>
  <!-- Body -->
  <ellipse cx="210" cy="205" rx="110" ry="50" fill="#1a7020"/>
  <!-- Dorsal spines -->
  <path d="M118 175 L112 155 M138 170 L133 150 M158 165 L154 145 M178 161 L175 141 M198 158 L196 138 M218 157 L217 136 M238 157 L238 136 M258 158 L259 137 M278 162 L280 142 M296 168 L300 148" stroke="#0a5015" stroke-width="4" fill="none" stroke-linecap="round"/>
  <!-- Tail -->
  <path d="M106 210 Q68 215 42 228 Q22 240 18 254 Q18 264 28 260 Q46 252 65 240 Q90 225 110 218Z" fill="#157018"/>
  <!-- Head -->
  <ellipse cx="318" cy="200" rx="58" ry="40" fill="#1a7020"/>
  <!-- Jowl -->
  <ellipse cx="320" cy="225" rx="35" ry="20" fill="#12581a"/>
  <!-- Eye -->
  <ellipse cx="335" cy="188" rx="12" ry="11" fill="#c8b020"/>
  <ellipse cx="335" cy="188" rx="4" ry="9" fill="#0a0808"/>
  <circle cx="332" cy="185" r="2" fill="rgba(255,255,255,0.4)"/>
  <!-- Snout -->
  <ellipse cx="368" cy="200" rx="22" ry="17" fill="#157018"/>
  <!-- Subtympanic shield -->
  <ellipse cx="300" cy="210" rx="18" ry="14" fill="#0f5815"/>
  <!-- Forked tongue -->
  <path d="M384 200 L397 196 M384 200 L397 204" stroke="#c03030" stroke-width="2" fill="none" stroke-linecap="round"/>
  <!-- Legs -->
  <path d="M276 242 Q285 262 274 280 Q269 288 263 281 Q267 264 262 246Z" fill="#157018"/>
  <path d="M175 243 Q184 263 173 281 Q168 289 162 282 Q166 265 161 247Z" fill="#157018"/>
  <!-- Scale pattern -->
  <circle cx="190" cy="196" r="4" fill="#0f5815" opacity="0.5"/>
  <circle cx="210" cy="191" r="4" fill="#0f5815" opacity="0.5"/>
  <circle cx="230" cy="196" r="4" fill="#0f5815" opacity="0.5"/>
  <text x="240" y="308" font-family="monospace" font-size="11" fill="#2a9030" text-anchor="middle" letter-spacing="3" opacity="0.7">GREEN IGUANA</text>
</svg>