<svg xmlns="http://www.w3.org/2000/svg" viewBox="0 0 480 320">
  <rect width="480" height="320" fill="#050a05"/>
  <path d="M30 185 Q130 175 220 180 Q308 185 380 170 Q425 162 460 155" stroke="#1a1508" stroke-width="15" fill="none" stroke-linecap="round"/>
  <!-- Tail coil -->
  <path d="M95 180 Q72 190 64 202 Q58 214 68 218 Q80 220 88 207 Q97 192 95 180Z" fill="#1a5010"/>
  <!-- Three horns - Jackson's signature -->
  <path d="M325 95 L322 68 L328 95Z" fill="#3a8020"/>
  <path d="M310 100 L304 77 L315 100Z" fill="#3a8020"/>
  <path d="M340 100 L336 78 L344 100Z" fill="#3a8020"/>
  <!-- Body -->
  <ellipse cx="232" cy="155" rx="88" ry="44" fill="#2a7020" transform="rotate(-8 232 155)"/>
  <!-- Green banding -->
  <path d="M165 150 Q170 164 165 178" stroke="#1a5018" stroke-width="10" fill="none" opacity="0.5"/>
  <path d="M200 145 Q205 160 200 173" stroke="#1a5018" stroke-width="10" fill="none" opacity="0.5"/>
  <path d="M240 142 Q245 156 240 169" stroke="#3a9028" stroke-width="8" fill="none" opacity="0.4"/>
  <!-- Head with horns -->
  <ellipse cx="305" cy="132" rx="46" ry="32" fill="#2a7020"/>
  <!-- Eye -->
  <ellipse cx="322" cy="120" rx="14" ry="13" fill="#0a3818"/>
  <ellipse cx="322" cy="120" rx="10" ry="9" fill="#80b030"/>
  <ellipse cx="322" cy="120" rx="3.5" ry="8" fill="#080808"/>
  <circle cx="319" cy="117" r="2.2" fill="rgba(255,255,255,0.5)"/>
  <!-- Snout region -->
  <ellipse cx="346" cy="132" rx="22" ry="16" fill="#1e5815"/>
  <!-- Casque back -->
  <path d="M290 108 Q278 95 275 112 Q272 128 280 132" fill="#1e6018" opacity="0.7"/>
  <!-- Toe grip -->
  <path d="M195 178 Q188 188 180 186 M198 180 Q192 191 184 189 M202 179 Q196 188 188 186" stroke="#0a4818" stroke-width="3" fill="none" stroke-linecap="round"/>
  <text x="240" y="308" font-family="monospace" font-size="11" fill="#3a8028" text-anchor="middle" letter-spacing="3" opacity="0.7">JACKSON CHAMELEON</text>
</svg>