<svg xmlns="http://www.w3.org/2000/svg" viewBox="0 0 480 320">
  <rect width="480" height="320" fill="#050805"/>
  <path d="M20 180 Q120 168 210 173 Q295 178 380 162 Q430 154 460 146" stroke="#1a1005" stroke-width="16" fill="none" stroke-linecap="round"/>
  <path d="M20 180 Q120 168 210 173 Q295 178 380 162 Q430 154 460 146" stroke="#251805" stroke-width="7" fill="none" stroke-linecap="round"/>
  <!-- Tail -->
  <path d="M88 175 Q65 183 56 195 Q50 205 59 210 Q70 213 78 200 Q87 185 88 175Z" fill="#1a4a10"/>
  <!-- Body - colorful panther -->
  <ellipse cx="238" cy="150" rx="92" ry="46" fill="#1a7a40" transform="rotate(-10 238 150)"/>
  <!-- Color bands - panther specific -->
  <path d="M170 145 Q175 160 170 174" stroke="#0050a0" stroke-width="12" fill="none" opacity="0.6"/>
  <path d="M205 140 Q210 156 205 170" stroke="#0050a0" stroke-width="12" fill="none" opacity="0.6"/>
  <path d="M240 137 Q246 153 240 167" stroke="#c05000" stroke-width="10" fill="none" opacity="0.5"/>
  <path d="M272 140 Q278 155 272 168" stroke="#c05000" stroke-width="10" fill="none" opacity="0.5"/>
  <!-- Casque -->
  <path d="M308 92 Q322 76 314 122 L296 132 Q292 112 302 97Z" fill="#1a7a40"/>
  <!-- Head -->
  <ellipse cx="302" cy="133" rx="44" ry="32" fill="#1a7a40"/>
  <!-- Eye turret -->
  <ellipse cx="316" cy="120" rx="15" ry="14" fill="#0a3a20"/>
  <ellipse cx="316" cy="120" rx="11" ry="10" fill="#70c040"/>
  <ellipse cx="316" cy="120" rx="3.5" ry="9" fill="#080808"/>
  <circle cx="313" cy="116" r="2.5" fill="rgba(255,255,255,0.55)"/>
  <!-- Toe grip -->
  <path d="M193 172 Q186 182 178 180 M196 174 Q190 185 182 183 M200 173 Q194 182 186 180" stroke="#0a5028" stroke-width="3" fill="none" stroke-linecap="round"/>
  <!-- Tongue -->
  <path d="M342 136 Q358 133 368 134 Q374 136 367 140 Q356 144 344 140Z" fill="#e03030" opacity="0.75"/>
  <text x="240" y="308" font-family="monospace" font-size="11" fill="#30a050" text-anchor="middle" letter-spacing="3" opacity="0.7">PANTHER CHAMELEON</text>
</svg>